<svg id="Layer_1" data-name="Layer 1" xmlns="http://www.w3.org/2000/svg" viewBox="0 0 200.32 208.74"><title>Brusjan – Ikon ↓ Fri</title><path d="M112.92,181.86c13.84-26.33,49.13-74.37,66.23-99.34,7.06,5.15,14.93,11.13,21.17,15.47-25,28.5-76.27,86.59-88.49,110.75-2.71-.28-8.14-.28-11.94-.28-3.26,0-8.69.28-11.13.28C76.55,184.58,24.7,126.22,0,98c6.24-4.61,14.39-10.32,21.17-15.74C38.27,107.49,74.1,155.53,88,181.86h1.9c-.55-17.64-1.63-47.77-1.63-73.83,0-27.68-.55-84.69-1.36-108H114c-1.35,22.8-1.35,80.62-1.35,108,0,26.06-.82,55.92-1.63,73.83Z"/></svg>