<svg id="Layer_1" data-name="Layer 1" xmlns="http://www.w3.org/2000/svg" viewBox="0 0 237.78 163.95"><title>Brusjan – Ikon ← Fri</title><path d="M25.79,72.75c19.54-.28,66.77-1.09,99.89-1.09,33.93,0,82.24,0,112.1-.81-.27,2.44-.27,8.14-.27,11.12s0,8.69.27,11.13C207.92,92.29,159.61,92,125.68,92c-33.12,0-80.35-.55-99.89-.82v1.63C58.63,101.52,123,130,145.22,140.88c-3,5.7-8.14,18.18-10,23.07C101,142,24.43,101.25,0,92.29c.27-1.9.27-7.33.27-10,0-3,0-8.69-.27-10.59C24.43,62.7,101,22,135.18,0c1.9,4.61,7,17.37,10,22.8C123,33.66,58.63,62.43,25.79,70.85Z"/></svg>