<svg xmlns="http://www.w3.org/2000/svg" viewBox="0 0 5000 860"><title>Brusjan_Navnetrekk-Positiv</title><g id="Navnetrekk"><path d="M1461,236c-80.89-.59-151.82,28.13-194,98.47l-3.52-1.17c6.45-32.24,13.48-61,20.52-92H1075.25c-7.62,53.93-17.58,109-31.65,189.92C1028.94,511.48,1019,566,1007.26,618.75h248.53c2.35-30.49,10.55-79.14,18.76-124.27,11.72-66.82,55.68-90.27,138.92-90.27,45.72,0,82.06,5.86,106.1,24.62l31.06-167.65C1526,244.77,1502,236,1461,236Z"/><path d="M912.3,403c-14.66-3.52-32.83-5.28-54.52-7l.59-3.51c25.21-2.94,46.89-5.87,64.48-10.56,62.72-17,87.34-44,96.72-98.47,12.31-68-66.24-119-182.3-118.41l-540.45-.58c-7.62,63.3-19.34,130.71-36.34,227.43C242.9,488,230.59,553.68,215.35,618.75H774c134.82,0,198.71-29.9,214.54-116.07C998.46,445.83,978.53,418.28,912.3,403ZM747.58,465.76c-4.68,28.72-24,38.68-65.06,38.68-58,0-122.51,0-205.16-.58,3.52-21.69,7.62-45.14,12.31-70.93,73.86-1.76,143.61-1.76,202.82-1.76C735.86,431.17,752.27,440.55,747.58,465.76Zm28.14-161.2c-4.69,26.38-27.55,38.69-68,39.27-59.79,0-126.62,1.18-202.23-.58,5.27-28.14,10-53.34,13.48-75,76.79-.59,143-.59,206.33-.59C764.58,267.63,780.41,277,775.72,304.56Z"/><path d="M3207.73,226c89.09-1.17,138.33-19.34,143-53.92,5.28-32.83-39.27-50.41-128.37-50.41-90.27,0-140.09,17.58-144.78,50.41C3072.32,207.26,3116.28,226,3207.73,226Z"/><path d="M2914.64,502.68C2929.88,417.1,2893,386,2673.14,381.93c-157.09-2.34-168.23-13.48-165.3-30.48s19.93-24,114.31-24c89.68,0,123.68,10,119,35.17l-.59,5.28c16.41-.59,45.14-1.18,76.2-1.18,39.86,0,85.58,1.18,112,3.52,1.76-5.27,3.52-10.55,4.1-15.83,17-94.37-61.54-127.19-303-127.19s-323,39.86-338.81,127.19c-14.65,82.07,35.76,119.58,247.95,122.51,148.3.59,162.37,13.49,159.44,31.07-2.93,15.83-24,23.45-117.82,23.45-95.55,0-131.89-11.14-127.2-38.69l.59-2.93c-19.93,1.76-46.31,1.76-74.45,1.76-47.48,0-82.65-1.17-111.37-3.52-1.17,5.86-2.34,11.72-3.52,18.17-16.41,90.86,70.93,127.2,304.81,127.2C2816.75,633.4,2898.23,594.13,2914.64,502.68Z"/><path d="M4584.63,228.94c-117.23,0-211.61,40.45-252.64,109l-3.51-.58c8.2-34.59,13.48-61,19.34-96.14h-237.4c-7.62,55.1-16.41,110.2-31.06,191.09-15.83,89.1-24,133.06-36.35,186.41h239.74c4.69-29.31,10.56-63.9,24.62-143,11.14-63.89,63.31-102,140.1-102,66.82,0,96.72,30.48,86.16,88.51-11.13,62.72-22.27,120.16-30.48,156.51h240.92c4.1-37.52,10.55-75,18.17-118.41,5.27-29.31,11.14-54.51,18.76-96.13C4801.51,289.32,4734.1,228.94,4584.63,228.94Z"/><path d="M2043,241.25c-4.69,29.31-10,63.9-24.62,143.62-12.89,73.85-71.51,102-139.5,102-76.21,0-98.48-23.45-86.76-89.1,11.14-62.13,22.28-119.58,30.48-156.51h-238c-5.86,38.11-13.48,75.62-21.1,118.41-5.28,29.89-11.14,54.51-18.17,96.13-18.17,100.24,66.23,175.85,195.78,175.85,126.61,0,205.74-32.82,252.63-108.44l3.52.59c-7.62,34.58-12.89,59.79-19.93,95h237.4c8.21-54.52,17-109.62,31.65-191.09,15.83-87.93,24.62-133.06,35.76-186.41Z"/><path d="M3088.15,241.25c-5.86,51.59-23.45,163.54-40.45,257.33-8.2,47.48-31.65,68.58-71.51,68.58-18.17,0-38.69-5.86-47.48-13.48-18.17,34.58-76.2,73.86-144.2,85.58,46.31,46.89,130.72,83.82,211.61,83.82,185.23,0,246.19-68.58,272.57-216.88,8.79-46.89,18.75-116.65,24-146.54,7-40.45,12.9-73.86,22.27-118.41C3239.38,255.32,3163.76,254.74,3088.15,241.25Z"/><path d="M3832.34,241.39l-9.2,58.8-2.17.53a126.57,126.57,0,0,0-18.53-18.3C3755.55,242.56,3672.9,232,3600.22,232c-171.75,0-291.33,85.58-291.33,247.36,0,113.13,93.2,147.13,220.4,147.13,93,0,189.52-18.1,244.09-81.68l5.86,1.41c-2.86,14.32-8.26,39.64-6.69,33.37-4.69,22.28,8.2,39.28,29.89,39.28h198.13c2.93-17,66.82-368.11,68.58-377.49ZM3806.55,406.1c-12.31,70.93-82.65,94.37-154.17,94.37-56.27,1.17-107.85-9.38-107.85-56.27,0-17.58,5.86-36.93,14.65-50.41,24-36.34,79.14-43.38,130.13-43.38,46.31,0,87.93,4.11,123.1,19.35Z"/></g></svg>
