<svg id="Layer_1" data-name="Layer 1" xmlns="http://www.w3.org/2000/svg" viewBox="0 0 237.78 163.95"><title>Brusjan – Ikon → Fri</title><path d="M212,71.12c-32.84-8.69-97.17-37.19-119.43-48.05,3-5.7,8.14-18.18,10-23.07,34.21,22,110.75,62.7,135.18,71.66-.27,1.9-.27,7.33-.27,10,0,3,0,8.69.27,10.59-24.43,9-101,49.67-135.18,71.66-1.9-4.62-7-17.37-10-22.8C114.82,130.29,179.15,101.52,212,93.1V91.2c-19.54.27-66.77,1.09-99.89,1.09-33.93,0-82.24,0-112.1.81C.27,90.66.27,85,.27,82s0-8.68-.27-11.12c29.86.81,78.17,1.08,112.1,1.08,33.12,0,80.35.54,99.89.82Z"/></svg>