<svg xmlns="http://www.w3.org/2000/svg" id="Emblem" viewBox="0 0 737.01 609.45"><defs><style>.cls-1{fill:#fff}</style></defs><title>Brusjan_Emblem-AS</title><path d="M531.86,164.62c-89.57,0-162.44,53.17-162.44,118.51s72.87,118.51,162.44,118.51S694.3,348.48,694.3,283.13,621.43,164.62,531.86,164.62Zm0,227c-82.17,0-149-50.33-149-108.47s66.85-108.46,149-108.46,149,50.32,149,108.46S614,391.6,531.86,391.6Z" class="cls-1"/><path d="M166.66,422.63c0-79.21,26.59-173.1,66.57-246.63,20-36.68,53-87.29,77.75-87.29,12.65,0,16.32,20.36,16.32,44.38,0,57-23.84,140.09-53.36,194.56a64.35,64.35,0,0,1,22.55-4,71.16,71.16,0,0,1,25.86,4.95c26.77-55.93,48.59-137.52,48.59-194.74,0-50.06-17.06-88.93-60.15-88.93-43.27,0-80.86,45.48-115.89,110.2-43.64,80.5-71.88,181-71.88,271.58a36,36,0,0,0,15.77,3.3C144.84,430,156.76,427.58,166.66,422.63Z" class="cls-1"/><path d="M302.72,482.59c-15.22,23.11-39.24,38.33-67.29,38.33-23.84,0-44.38-10.64-55.75-32.64-15.22,5.13-29.52,7.7-43.09,7.7h-1.83c17.23,42,51.71,66.93,95.9,68.58,56.11,0,98.1-29.16,121-80.32a129.7,129.7,0,0,1-20.35,1.47C323.45,485.71,310.61,484.61,302.72,482.59Z" class="cls-1"/><path d="M196.74,469.21a218.46,218.46,0,0,0,44.19-28.43,84.36,84.36,0,0,1-13.39-44.19v-2.75c-24.75,24.76-62,47.13-90.77,47.13-29.7,0-47.49-29.34-50.42-52.63l-43.64,4.22c6,48.77,42.72,92.23,94.06,92.23C154.93,484.79,174.92,479.66,196.74,469.21Z" class="cls-1"/><path d="M366.35,425.2c.19-1.84.19-4.22.19-6.42,0-45.48-27.14-84.17-70.05-84.17-32.46,0-57.76,28.61-57.76,60.88,0,46.95,42.17,76.83,92.6,76.83,39.24,0,82-17.05,115.34-43.27l-27-34.47A216.17,216.17,0,0,1,366.35,425.2Zm-44.56,5.13c-22.55-3.3-39.05-15.22-39.42-34.1,0-8.07,5.32-17.79,14.12-17.79,17.24,0,26,18.89,26,39.42A88,88,0,0,1,321.79,430.33Z" class="cls-1"/><path d="M463.13,245.74c-7.95,11.93-39.67,54.22-54.42,72.75H425.5c2.23-3.4,6.69-9.61,12-16.78,11.94-.2,25.9-.2,34.92-.2,10.48,0,23.19,0,35.89.2,5.63,7.76,10.19,14.16,11.74,16.78h18c-15.42-19.5-44.71-57.14-55.58-72.75Zm38.22,46.36c-9.7.1-20.76.1-28.81.1-7.47,0-18.53,0-27.94-.1,6.12-8.34,12.61-17.07,17.56-24.15s8.15-11.54,10.67-15c2.33,3.29,5.43,7.76,10.67,14.84C488.55,274.64,495.14,283.57,501.35,292.1Z" class="cls-1"/><path d="M594.47,276.2c-35.79-1.17-40.74-3.69-40.74-11.16,0-7.66,8.44-11.45,36.47-11.45,30,0,37.35,4.08,37.35,14.55,0,1,0,2.24-.1,3.3,1.45-.09,4.07-.19,6.89-.19,2.52,0,5,.1,6.69.19.1-1.65.1-3.1.1-4.56,0-17.36-12.71-23.08-50.74-23.08-37,0-50.24,7.95-50.24,22s8.92,20,50.83,20.75c32,.59,40,2.53,40,11.35,0,8.15-8.83,12.23-38.8,12.23-28.52,0-40-3.5-40-14.55,0-.88.09-1.94.09-2.82-1.74,0-4.17.1-6.88.1-2.53,0-5.14-.1-7-.29a46.06,46.06,0,0,0-.29,5c0,17.46,17.27,22.8,54.32,22.8,37.83,0,52.19-7.08,52.19-23S633.27,277.46,594.47,276.2Z" class="cls-1"/></svg>